<svg width="40" height="40" viewBox="0 0 40 40" fill="none" xmlns="http://www.w3.org/2000/svg">
<rect width="40" height="40" rx="5" fill="white"/>
<mask id="mask0_1_9" style="mask-type:alpha" maskUnits="userSpaceOnUse" x="1" y="1" width="38" height="38">
<path d="M22.0102 30.6433L30.6231 22.0242L22.0102 30.6433ZM17.2995 22.0242L8.68665 30.6433L17.2995 22.0242ZM22.0102 17.31L30.6231 8.69083L22.0102 17.31ZM8.68665 17.31L17.2995 8.69083L8.68665 17.31Z" fill="#D88F8F"/>
<path d="M22.0102 30.6433L30.6231 22.0242M17.2995 22.0242L8.68665 30.6433M22.0102 17.31L30.6231 8.69083M8.68665 17.31L17.2995 8.69083" stroke="white" stroke-width="4" stroke-linecap="round" stroke-linejoin="round"/>
<path d="M9.66179 6.33333C9.66179 7.21739 9.31086 8.06524 8.68619 8.69036C8.06153 9.31548 7.2143 9.66667 6.33089 9.66667C5.44749 9.66667 4.60026 9.31548 3.9756 8.69036C3.35093 8.06524 3 7.21739 3 6.33333C3 5.44928 3.35093 4.60143 3.9756 3.97631C4.60026 3.35119 5.44749 3 6.33089 3C7.2143 3 8.06153 3.35119 8.68619 3.97631C9.31086 4.60143 9.66179 5.44928 9.66179 6.33333ZM22.9854 6.33333C22.9854 7.21739 22.6344 8.06524 22.0098 8.69036C21.3851 9.31548 20.5379 9.66667 19.6545 9.66667C18.7711 9.66667 17.9238 9.31548 17.2992 8.69036C16.6745 8.06524 16.3236 7.21739 16.3236 6.33333C16.3236 5.44928 16.6745 4.60143 17.2992 3.97631C17.9238 3.35119 18.7711 3 19.6545 3C20.5379 3 21.3851 3.35119 22.0098 3.97631C22.6344 4.60143 22.9854 5.44928 22.9854 6.33333ZM36.3089 6.33333C36.3089 7.21739 35.958 8.06524 35.3334 8.69036C34.7087 9.31548 33.8615 9.66667 32.9781 9.66667C32.0946 9.66667 31.2474 9.31548 30.6228 8.69036C29.9981 8.06524 29.6472 7.21739 29.6472 6.33333C29.6472 5.44928 29.9981 4.60143 30.6228 3.97631C31.2474 3.35119 32.0946 3 32.9781 3C33.8615 3 34.7087 3.35119 35.3334 3.97631C35.958 4.60143 36.3089 5.44928 36.3089 6.33333ZM36.3089 19.6667C36.3089 20.5507 35.958 21.3986 35.3334 22.0237C34.7087 22.6488 33.8615 23 32.9781 23C32.0946 23 31.2474 22.6488 30.6228 22.0237C29.9981 21.3986 29.6472 20.5507 29.6472 19.6667C29.6472 18.7826 29.9981 17.9348 30.6228 17.3096C31.2474 16.6845 32.0946 16.3333 32.9781 16.3333C33.8615 16.3333 34.7087 16.6845 35.3334 17.3096C35.958 17.9348 36.3089 18.7826 36.3089 19.6667ZM36.3089 33C36.3089 33.8841 35.958 34.7319 35.3334 35.357C34.7087 35.9821 33.8615 36.3333 32.9781 36.3333C32.0946 36.3333 31.2474 35.9821 30.6228 35.357C29.9981 34.7319 29.6472 33.8841 29.6472 33C29.6472 32.1159 29.9981 31.2681 30.6228 30.643C31.2474 30.0179 32.0946 29.6667 32.9781 29.6667C33.8615 29.6667 34.7087 30.0179 35.3334 30.643C35.958 31.2681 36.3089 32.1159 36.3089 33ZM22.9854 33C22.9854 33.8841 22.6344 34.7319 22.0098 35.357C21.3851 35.9821 20.5379 36.3333 19.6545 36.3333C18.7711 36.3333 17.9238 35.9821 17.2992 35.357C16.6745 34.7319 16.3236 33.8841 16.3236 33C16.3236 32.1159 16.6745 31.2681 17.2992 30.643C17.9238 30.0179 18.7711 29.6667 19.6545 29.6667C20.5379 29.6667 21.3851 30.0179 22.0098 30.643C22.6344 31.2681 22.9854 32.1159 22.9854 33ZM9.66179 33C9.66179 33.8841 9.31086 34.7319 8.68619 35.357C8.06153 35.9821 7.2143 36.3333 6.33089 36.3333C5.44749 36.3333 4.60026 35.9821 3.9756 35.357C3.35093 34.7319 3 33.8841 3 33C3 32.1159 3.35093 31.2681 3.9756 30.643C4.60026 30.0179 5.44749 29.6667 6.33089 29.6667C7.2143 29.6667 8.06153 30.0179 8.68619 30.643C9.31086 31.2681 9.66179 32.1159 9.66179 33ZM9.66179 19.6667C9.66179 20.5507 9.31086 21.3986 8.68619 22.0237C8.06153 22.6488 7.2143 23 6.33089 23C5.44749 23 4.60026 22.6488 3.9756 22.0237C3.35093 21.3986 3 20.5507 3 19.6667C3 18.7826 3.35093 17.9348 3.9756 17.3096C4.60026 16.6845 5.44749 16.3333 6.33089 16.3333C7.2143 16.3333 8.06153 16.6845 8.68619 17.3096C9.31086 17.9348 9.66179 18.7826 9.66179 19.6667ZM22.9854 19.6667C22.9854 20.5507 22.6344 21.3986 22.0098 22.0237C21.3851 22.6488 20.5379 23 19.6545 23C18.7711 23 17.9238 22.6488 17.2992 22.0237C16.6745 21.3986 16.3236 20.5507 16.3236 19.6667C16.3236 18.7826 16.6745 17.9348 17.2992 17.3096C17.9238 16.6845 18.7711 16.3333 19.6545 16.3333C20.5379 16.3333 21.3851 16.6845 22.0098 17.3096C22.6344 17.9348 22.9854 18.7826 22.9854 19.6667Z" fill="#D88F8F" stroke="white" stroke-width="4" stroke-linecap="round" stroke-linejoin="round"/>
</mask>
<g mask="url(#mask0_1_9)">
<path d="M-0.00878906 0H39.962V40H-0.00878906V0Z" fill="black"/>
</g>
</svg>
